<svg width="36" height="47" viewBox="0 0 36 47" fill="none" xmlns="http://www.w3.org/2000/svg">
<g clip-path="url(#clip0)">
<path d="M35.5408 9.359L18.1657 0.100497C18.0393 0.0319805 17.8979 -0.00390625 17.7542 -0.00390625C17.6105 -0.00390625 17.4691 0.0319805 17.3428 0.100497L0.44844 9.36363C0.312599 9.43821 0.199304 9.54794 0.120412 9.68132C0.0415201 9.81471 -6.81421e-05 9.96685 8.38088e-08 10.1218V22.2158C0.0046614 27.0811 1.42652 31.8397 4.09181 35.9101C6.75711 39.9804 10.5504 43.1861 15.0081 45.1356L17.3535 46.1573C17.4622 46.2045 17.5795 46.2288 17.698 46.2288C17.8165 46.2288 17.9337 46.2045 18.0424 46.1573L20.6852 45.0154C25.2229 43.1096 29.0969 39.9065 31.8214 35.8077C34.5458 31.709 35.9995 26.897 36 21.9754V10.1234C36 9.96628 35.9572 9.81218 35.8763 9.67754C35.7954 9.5429 35.6794 9.43279 35.5408 9.359ZM26.4811 19.5807L15.8387 28.2382C15.6636 28.3807 15.4396 28.4491 15.2146 28.4287C14.9897 28.4082 14.7817 28.3006 14.6352 28.1287L10.066 22.7783C9.91703 22.6038 9.84349 22.3772 9.86155 22.1485C9.87961 21.9197 9.9878 21.7075 10.1623 21.5586C10.3368 21.4096 10.5634 21.3361 10.7921 21.3541C11.0209 21.3722 11.2331 21.4804 11.382 21.6549L15.4026 26.3627L25.3885 18.2384C25.5665 18.0935 25.7947 18.0253 26.023 18.0487C26.1361 18.0603 26.2457 18.094 26.3457 18.148C26.4457 18.202 26.5341 18.2751 26.6059 18.3632C26.6776 18.4514 26.7313 18.5528 26.7639 18.6617C26.7964 18.7705 26.8072 18.8848 26.7956 18.9978C26.784 19.1108 26.7503 19.2205 26.6963 19.3205C26.6423 19.4205 26.5692 19.5089 26.4811 19.5807Z" fill="white"/>
</g>
<defs>
<clipPath id="clip0">
<rect width="36" height="46.2309" fill="white"/>
</clipPath>
</defs>
</svg>
