<svg width="40" height="37" viewBox="0 0 40 37" fill="none" xmlns="http://www.w3.org/2000/svg">
<g clip-path="url(#clip0)">
<path d="M35.7817 3.51738e-05H9.91671C8.84334 -0.00443209 7.81197 0.416788 7.04861 1.17139C6.28525 1.926 5.85216 2.95244 5.84425 4.02579L5.67895 26.8017H0.631492C0.458651 26.8082 0.295384 26.8827 0.177183 27.009C0.0589821 27.1353 -0.00459956 27.3031 0.000259338 27.476V30.6106C0.00474117 32.0104 0.543564 33.3556 1.50663 34.3715C2.4697 35.3873 3.78432 35.997 5.18187 36.0761V36.1132H26.9636V36.0713C27.1253 36.0785 27.2235 36.1132 27.3349 36.1132H27.3505C28.0697 36.109 28.781 35.9631 29.4438 35.6839C30.1066 35.4047 30.7079 34.9976 31.2133 34.4859C31.7188 33.9743 32.1184 33.368 32.3895 32.7019C32.6606 32.0357 32.7978 31.3226 32.7932 30.6034V10.6879H39.369C39.5425 10.6795 39.7058 10.6034 39.8238 10.476C39.9418 10.3485 40.0052 10.1799 40.0003 10.0063V4.25696C40.0025 3.13389 39.56 2.05563 38.7695 1.25791C37.9789 0.460203 36.9047 0.00794855 35.7817 3.51738e-05ZM5.46575 34.8184C4.35577 34.8115 3.29385 34.3646 2.5129 33.5757C1.73195 32.7869 1.29571 31.7206 1.29986 30.6106V28.0953H21.8622V30.5974C21.8597 31.3193 21.9997 32.0346 22.2743 32.7022C22.549 33.3698 22.9527 33.9767 23.4625 34.4878C23.5871 34.5853 23.7015 34.6953 23.8038 34.816L5.46575 34.8184ZM31.502 30.6094C31.509 31.7175 31.076 32.7831 30.2981 33.5722C29.5202 34.3614 28.4609 34.8096 27.3529 34.8184H27.3397C26.2271 34.8102 25.1631 34.3618 24.3802 33.5713C23.5973 32.7808 23.1592 31.7124 23.1618 30.5998V27.476C23.1628 27.3014 23.0957 27.1332 22.9747 27.0073C22.8537 26.8813 22.6884 26.8076 22.5138 26.8017H6.97496L7.14145 4.03058C7.14411 3.6688 7.21801 3.31108 7.35892 2.97786C7.49984 2.64464 7.70501 2.34244 7.96272 2.08851C8.22043 1.83458 8.52563 1.6339 8.8609 1.49793C9.19616 1.36196 9.55493 1.29335 9.91671 1.29604H32.7237C31.9567 2.09977 31.5205 3.16289 31.502 4.27373V30.6094ZM38.7043 4.26774V9.39306H32.7944V4.27133C32.7991 3.48461 33.1132 2.73133 33.6688 2.17435C34.2245 1.61737 34.977 1.30143 35.7637 1.29484H35.7817C36.5622 1.30243 37.308 1.61882 37.8559 2.17482C38.4039 2.73081 38.7093 3.48116 38.7055 4.26175L38.7043 4.26774Z" fill="white"/>
<path d="M15.2111 15.9438L18.5505 18.2268C18.6564 18.2991 18.7816 18.3378 18.9098 18.3378C19.038 18.3378 19.1633 18.2991 19.2691 18.2268L22.599 15.9438C23.1983 15.4949 23.6899 14.9178 24.0378 14.2547C24.3858 13.5916 24.5813 12.8592 24.6101 12.1109V7.48267C24.6135 7.36296 24.5828 7.24474 24.5218 7.14171C24.4607 7.03868 24.3717 6.95506 24.2651 6.90055L19.1805 4.39958C19.0925 4.35579 18.9955 4.33301 18.8972 4.33301C18.7989 4.33301 18.702 4.35579 18.614 4.39958L13.539 6.89336C13.4327 6.94946 13.3445 7.03468 13.2849 7.13905C13.2253 7.24342 13.1967 7.36262 13.2024 7.48267V12.1097C13.2307 12.858 13.4258 13.5905 13.7733 14.2538C14.1208 14.9172 14.612 15.4945 15.2111 15.9438ZM14.4924 7.88393L18.905 5.70636L23.3177 7.88992V12.1061C23.2906 12.6444 23.1472 13.1705 22.8974 13.6481C22.6477 14.1258 22.2974 14.5436 21.8707 14.873L18.8966 16.9092L15.9345 14.873C15.5096 14.5428 15.1611 14.1245 14.913 13.6469C14.6649 13.1693 14.523 12.6437 14.4972 12.1061L14.4924 7.88393Z" fill="white"/>
<path d="M17.8115 13.0808C17.8713 13.1418 17.9427 13.1904 18.0214 13.2237C18.1002 13.257 18.1847 13.2744 18.2702 13.2748C18.3553 13.2745 18.4396 13.2574 18.5181 13.2245C18.5966 13.1916 18.6678 13.1436 18.7278 13.0832L21.3042 10.5055C21.4259 10.384 21.4943 10.2192 21.4944 10.0472C21.4945 9.87525 21.4263 9.7103 21.3048 9.58863C21.1833 9.46697 21.0184 9.39855 20.8465 9.39844C20.6745 9.39833 20.5096 9.46652 20.3879 9.58803L18.2714 11.7045L17.4258 10.8505C17.3048 10.7284 17.1402 10.6593 16.9682 10.6585C16.7963 10.6577 16.631 10.7253 16.5089 10.8463C16.3867 10.9673 16.3177 11.1319 16.3169 11.3039C16.3161 11.4758 16.3837 11.6411 16.5047 11.7632L17.8115 13.0808Z" fill="white"/>
<path d="M26.9636 20.0811H11.4175C11.2457 20.0811 11.0809 20.1493 10.9593 20.2709C10.8378 20.3924 10.7695 20.5572 10.7695 20.7291C10.7695 20.9009 10.8378 21.0657 10.9593 21.1873C11.0809 21.3088 11.2457 21.3771 11.4175 21.3771H26.9636C27.1354 21.3771 27.3003 21.3088 27.4218 21.1873C27.5433 21.0657 27.6116 20.9009 27.6116 20.7291C27.6116 20.5572 27.5433 20.3924 27.4218 20.2709C27.3003 20.1493 27.1354 20.0811 26.9636 20.0811Z" fill="white"/>
<path d="M26.9636 23.0767H11.4175C11.2457 23.0767 11.0809 23.1449 10.9593 23.2664C10.8378 23.388 10.7695 23.5528 10.7695 23.7246C10.7695 23.8965 10.8378 24.0614 10.9593 24.1829C11.0809 24.3044 11.2457 24.3727 11.4175 24.3727H26.9636C27.1354 24.3727 27.3003 24.3044 27.4218 24.1829C27.5433 24.0614 27.6116 23.8965 27.6116 23.7246C27.6116 23.5528 27.5433 23.388 27.4218 23.2664C27.3003 23.1449 27.1354 23.0767 26.9636 23.0767Z" fill="white"/>
</g>
<defs>
<clipPath id="clip0">
<rect width="40" height="36.1132" fill="white"/>
</clipPath>
</defs>
</svg>
