<svg width="48" height="42" viewBox="0 0 48 42" fill="none" xmlns="http://www.w3.org/2000/svg">
<g clip-path="url(#clip0)">
<path d="M47.9954 25.7201C47.9954 25.7092 47.9954 25.6984 47.9954 25.6875V25.6509L47.9886 25.6169L47.9791 25.583L47.9696 25.5491L47.9574 25.5165L47.9438 25.4839L47.9289 25.4514C47.924 25.4407 47.9186 25.4303 47.9126 25.4202L47.8949 25.3903L47.8746 25.3591L47.8542 25.3319L47.8298 25.3021L47.8176 25.2885L42.4787 19.48C42.2168 19.1954 41.8987 18.9682 41.5446 18.8126C41.1905 18.6571 40.808 18.5766 40.4213 18.5762H31.8063V11.0686C31.8052 10.3282 31.5106 9.61842 30.987 9.09488C30.4635 8.57133 29.7537 8.27673 29.0133 8.27565H19.9125C19.5833 6.42609 18.7416 4.70606 17.4831 3.3113C16.2246 1.91654 14.5999 0.903081 12.7937 0.386245C10.9876 -0.13059 9.0727 -0.130039 7.26688 0.387835C5.46106 0.90571 3.83687 1.92011 2.57917 3.31559C1.32147 4.71107 0.480756 6.43159 0.152712 8.28134C-0.175333 10.1311 0.0224663 12.0358 0.723598 13.7786C1.42473 15.5215 2.60103 17.0326 4.11864 18.1398C5.63625 19.2471 7.43421 19.9061 9.30791 20.0419V35.0421C9.30863 35.7829 9.60331 36.4931 10.1272 37.0167C10.6511 37.5404 11.3615 37.8347 12.1022 37.8351H14.0253C14.1942 38.8492 14.7174 39.7705 15.5018 40.435C16.2862 41.0995 17.281 41.4643 18.309 41.4643C19.3371 41.4643 20.3318 41.0995 21.1162 40.435C21.9006 39.7705 22.4238 38.8492 22.5928 37.8351H34.7159C34.8849 38.8492 35.4081 39.7705 36.1925 40.435C36.9769 41.0995 37.9716 41.4643 38.9997 41.4643C40.0277 41.4643 41.0225 41.0995 41.8069 40.435C42.5913 39.7705 43.1145 38.8492 43.2834 37.8351H45.2065C45.947 37.8344 46.657 37.5399 47.1806 37.0163C47.7042 36.4926 47.9987 35.7827 47.9994 35.0421V25.7771C47.9994 25.7771 47.9994 25.7649 47.9994 25.7594C47.9994 25.754 47.9967 25.7323 47.9954 25.7201ZM40.4199 20.0202C40.6062 20.0204 40.7904 20.0592 40.9609 20.1342C41.1314 20.2092 41.2845 20.3187 41.4106 20.4558L45.6258 25.0483H31.8063V20.0242L40.4199 20.0202ZM1.44612 10.0345C1.44612 8.33623 1.94971 6.67612 2.8932 5.26407C3.8367 3.85203 5.17773 2.75148 6.74671 2.10158C8.31568 1.45169 10.0421 1.28165 11.7078 1.61296C13.3734 1.94428 14.9033 2.76206 16.1042 3.9629C17.305 5.16375 18.1228 6.69372 18.4541 8.35933C18.7854 10.025 18.6154 11.7514 17.9655 13.3204C17.3156 14.8894 16.2151 16.2304 14.803 17.1739C13.391 18.1174 11.7309 18.621 10.0326 18.621C7.75534 18.621 5.57133 17.7163 3.96104 16.1061C2.35076 14.4958 1.44612 12.3118 1.44612 10.0345ZM10.756 35.0421V20.0432C13.2846 19.8582 15.6497 18.7236 17.3765 16.8672C19.1033 15.0108 20.064 12.5699 20.0658 10.0345C20.0658 9.93134 20.0658 9.8282 20.0658 9.7237H29.0228C29.3794 9.72406 29.7213 9.86587 29.9734 10.118C30.2255 10.3701 30.3674 10.712 30.3677 11.0686V36.383H22.5914C22.4225 35.3689 21.8993 34.4476 21.1149 33.7831C20.3304 33.1185 19.3357 32.7538 18.3077 32.7538C17.2796 32.7538 16.2849 33.1185 15.5005 33.7831C14.7161 34.4476 14.1928 35.3689 14.0239 36.383H12.1022C11.7463 36.3826 11.4051 36.2414 11.1531 35.9901C10.901 35.7388 10.7588 35.398 10.7573 35.0421H10.756ZM18.3083 40.0078C17.7355 40.0078 17.1756 39.838 16.6994 39.5198C16.2231 39.2015 15.8519 38.7492 15.6327 38.22C15.4135 37.6908 15.3561 37.1085 15.4679 36.5467C15.5796 35.985 15.8555 35.4689 16.2605 35.0639C16.6655 34.6589 17.1816 34.383 17.7433 34.2713C18.3051 34.1596 18.8874 34.2169 19.4166 34.4361C19.9458 34.6553 20.3981 35.0265 20.7164 35.5028C21.0346 35.979 21.2044 36.539 21.2044 37.1117C21.2044 37.4921 21.1295 37.8687 20.984 38.22C20.8384 38.5714 20.6251 38.8907 20.3562 39.1596C20.0873 39.4285 19.768 39.6418 19.4166 39.7874C19.0653 39.9329 18.6887 40.0078 18.3083 40.0078ZM38.9976 40.0078C38.4249 40.0078 37.8649 39.838 37.3887 39.5198C36.9124 39.2015 36.5412 38.7492 36.322 38.22C36.1028 37.6908 36.0454 37.1085 36.1572 36.5467C36.2689 35.985 36.5448 35.4689 36.9498 35.0639C37.3548 34.6589 37.8709 34.383 38.4326 34.2713C38.9944 34.1596 39.5767 34.2169 40.1059 34.4361C40.6351 34.6553 41.0874 35.0265 41.4057 35.5028C41.7239 35.979 41.8937 36.539 41.8937 37.1117C41.8937 37.4921 41.8188 37.8687 41.6733 38.22C41.5277 38.5714 41.3144 38.8907 41.0455 39.1596C40.7766 39.4285 40.4573 39.6418 40.1059 39.7874C39.7546 39.9329 39.378 40.0078 38.9976 40.0078ZM46.55 35.0421C46.5497 35.3987 46.4078 35.7406 46.1557 35.9927C45.9036 36.2449 45.5617 36.3867 45.2051 36.387H43.2821C43.1131 35.373 42.5899 34.4517 41.8055 33.7871C41.0211 33.1226 40.0264 32.7579 38.9983 32.7579C37.9703 32.7579 36.9755 33.1226 36.1911 33.7871C35.4067 34.4517 34.8835 35.373 34.7146 36.387H31.8063V26.5004H46.55V35.0421Z" fill="white"/>
<path d="M14.0392 7.61816C13.9793 7.54425 13.9053 7.4829 13.8216 7.43764C13.7378 7.39237 13.646 7.36407 13.5513 7.35436C13.4567 7.34465 13.361 7.35373 13.2698 7.38106C13.1786 7.4084 13.0938 7.45345 13.02 7.51365L8.75054 10.9879L7.14778 9.10284C7.0212 8.96325 6.84523 8.87846 6.65719 8.86644C6.46914 8.85441 6.2838 8.91609 6.14048 9.03842C5.99715 9.16074 5.9071 9.33408 5.88943 9.52168C5.87175 9.70928 5.92784 9.89638 6.0458 10.0433L8.11541 12.4658C8.23836 12.6096 8.41266 12.6995 8.60107 12.7165C8.78947 12.7335 8.97705 12.6762 9.12375 12.5567L13.9334 8.64142C14.0078 8.5814 14.0697 8.50724 14.1153 8.42321C14.161 8.33918 14.1895 8.24695 14.1994 8.15183C14.2092 8.05671 14.2001 7.96058 14.1726 7.86898C14.1452 7.77739 14.0998 7.69215 14.0392 7.61816Z" fill="white"/>
</g>
<defs>
<clipPath id="clip0">
<rect width="48" height="41.456" fill="white"/>
</clipPath>
</defs>
</svg>
