<svg width="40" height="42" viewBox="0 0 40 42" fill="none" xmlns="http://www.w3.org/2000/svg">
<path d="M36.6661 24.6246V6.93135C36.6654 6.01677 36.314 5.13985 35.6889 4.49314C35.0638 3.84643 34.2162 3.4828 33.3322 3.48208H28.3321V0.896828C28.3365 0.780757 28.3183 0.664952 28.2784 0.556358C28.2385 0.447765 28.1779 0.34862 28.1001 0.26487C28.0223 0.18112 27.9289 0.114489 27.8256 0.0689749C27.7223 0.0234606 27.6112 0 27.4989 0C27.3867 0 27.2755 0.0234606 27.1722 0.0689749C27.0689 0.114489 26.9756 0.18112 26.8978 0.26487C26.82 0.34862 26.7593 0.447765 26.7195 0.556358C26.6796 0.664952 26.6614 0.780757 26.6658 0.896828V3.48344H11.6666V0.896828C11.6711 0.780757 11.6528 0.664952 11.6129 0.556358C11.5731 0.447765 11.5124 0.34862 11.4346 0.26487C11.3568 0.18112 11.2635 0.114489 11.1602 0.0689749C11.0569 0.0234606 10.9457 0 10.8335 0C10.7212 0 10.6101 0.0234606 10.5068 0.0689749C10.4035 0.114489 10.3101 0.18112 10.2323 0.26487C10.1545 0.34862 10.0939 0.447765 10.054 0.556358C10.0141 0.664952 9.99588 0.780757 10.0003 0.896828V3.48344H3.33388C2.45012 3.48415 1.60273 3.8476 0.977698 4.49402C0.352662 5.14043 0.00103985 6.017 0 6.93135L0 34.5214C0.000693324 35.436 0.352163 36.3129 0.977236 36.9596C1.60231 37.6063 2.44989 37.9699 3.33388 37.9707H23.7678C24.5803 38.9902 25.5899 39.8228 26.7317 40.415C27.8735 41.0071 29.1224 41.3457 30.3982 41.409C31.6739 41.4724 32.9484 41.2591 34.1398 40.7828C35.3312 40.3065 36.4132 39.5778 37.3163 38.6434C38.2195 37.709 38.9238 36.5895 39.3842 35.3569C39.8445 34.1243 40.0507 32.8057 39.9895 31.4858C39.9282 30.1659 39.601 28.8738 39.0286 27.6924C38.4563 26.5111 37.6516 25.4666 36.6661 24.6259V24.6246ZM1.66629 6.93135C1.66698 6.47411 1.84294 6.03583 2.15556 5.71264C2.46818 5.38945 2.89194 5.20775 3.33388 5.20739H10.0003V6.93135C9.67077 6.93135 9.34861 7.03245 9.07459 7.22189C8.80057 7.41132 8.587 7.68056 8.46088 7.99557C8.33477 8.31058 8.30177 8.65721 8.36606 8.99163C8.43036 9.32604 8.58905 9.63322 8.82209 9.87432C9.05512 10.1154 9.35203 10.2796 9.67525 10.3461C9.99848 10.4127 10.3335 10.3785 10.638 10.248C10.9425 10.1175 11.2027 9.89658 11.3858 9.61308C11.5689 9.32958 11.6666 8.99627 11.6666 8.6553V5.20739H26.6671V6.93135C26.3375 6.93135 26.0154 7.03245 25.7414 7.22189C25.4674 7.41132 25.2538 7.68056 25.1277 7.99557C25.0015 8.31058 24.9685 8.65721 25.0328 8.99163C25.0971 9.32604 25.2558 9.63322 25.4889 9.87432C25.7219 10.1154 26.0188 10.2796 26.342 10.3461C26.6653 10.4127 27.0003 10.3785 27.3048 10.248C27.6092 10.1175 27.8695 9.89658 28.0526 9.61308C28.2357 9.32958 28.3334 8.99627 28.3334 8.6553V5.20739H33.3336C33.7753 5.20811 34.1987 5.38997 34.511 5.71312C34.8234 6.03627 34.9992 6.47435 34.9998 6.93135V12.1046H1.66629V6.93135ZM3.33388 36.2454C2.89217 36.2446 2.46874 36.0628 2.1564 35.7396C1.84406 35.4165 1.66829 34.9784 1.66759 34.5214V13.8285H34.9998V23.4978C33.2763 22.5818 31.3162 22.2554 29.4019 22.5657C27.4875 22.876 25.7178 23.807 24.3477 25.2246C22.9776 26.6421 22.0777 28.4731 21.7778 30.4536C21.4779 32.4342 21.7933 34.4622 22.6788 36.2454H3.33388ZM30.8335 39.6946C29.3501 39.6946 27.9 39.2395 26.6666 38.3869C25.4332 37.5342 24.4718 36.3223 23.9042 34.9043C23.3365 33.4864 23.1879 31.9262 23.4773 30.4209C23.7667 28.9157 24.4811 27.533 25.53 26.4478C26.5789 25.3625 27.9153 24.6235 29.3703 24.3241C30.8252 24.0246 32.3332 24.1783 33.7037 24.7656C35.0742 25.353 36.2456 26.3476 37.0697 27.6237C37.8938 28.8998 38.3337 30.4 38.3337 31.9348C38.3316 33.9922 37.5408 35.9647 36.1347 37.4194C34.7285 38.8742 32.822 39.6925 30.8335 39.6946Z" fill="white"/>
<path d="M34.4108 28.7378L29.1671 34.1628L27.2561 32.1857C27.18 32.0998 27.088 32.0308 26.9855 31.9827C26.8829 31.9347 26.7721 31.9086 26.6595 31.9061C26.547 31.9035 26.4352 31.9246 26.3307 31.968C26.2263 32.0114 26.1314 32.0762 26.0518 32.1585C25.9722 32.2409 25.9096 32.339 25.8677 32.4471C25.8257 32.5551 25.8054 32.6709 25.8078 32.7873C25.8103 32.9037 25.8355 33.0184 25.8819 33.1245C25.9284 33.2306 25.9951 33.3258 26.078 33.4044L28.5781 35.991C28.6555 36.0711 28.7473 36.1347 28.8483 36.178C28.9494 36.2214 29.0577 36.2437 29.1671 36.2437C29.2765 36.2437 29.3849 36.2214 29.486 36.178C29.5871 36.1347 29.6789 36.0711 29.7562 35.991L35.5888 29.9552C35.734 29.7914 35.8124 29.5759 35.8077 29.3536C35.803 29.1314 35.7157 28.9196 35.5637 28.7624C35.4118 28.6053 35.2071 28.5148 34.9923 28.51C34.7775 28.5051 34.5692 28.5863 34.4108 28.7364V28.7378Z" fill="white"/>
</svg>
