<svg width="28" height="28" viewBox="0 0 28 28" fill="none" xmlns="http://www.w3.org/2000/svg">
<path d="M19.6484 9H8.35156L14 13.8416L19.6484 9Z" fill="white"/>
<path d="M14 15C13.8806 15 13.7651 14.9573 13.6746 14.8794L7.5 9.58691V19H20.5V9.58691L14.3254 14.8794C14.2349 14.9573 14.1194 15 14 15Z" fill="white"/>
<path d="M14 0C6.26807 0 0 6.26807 0 14C0 21.7319 6.26807 28 14 28C21.7319 28 28 21.7319 28 14C27.9912 6.27173 21.7283 0.00878906 14 0ZM21.5 19.5C21.5 19.7761 21.2761 20 21 20H7C6.72388 20 6.5 19.7761 6.5 19.5V8.5C6.5 8.22388 6.72388 8 7 8H21C21.2761 8 21.5 8.22388 21.5 8.5V19.5Z" fill="white"/>
</svg>
