<svg width="15" height="15" viewBox="0 0 15 15" fill="none" xmlns="http://www.w3.org/2000/svg">
<path d="M14.8121 7.32437C15.084 7.02532 15.0578 6.56696 14.7535 6.30087L8.04977 0.435101C7.74549 0.169009 7.25766 0.174583 6.95978 0.447668L0.233293 6.61361C-0.0645821 6.8867 -0.079202 7.34446 0.200924 7.63564L0.369566 7.81127C0.64935 8.10245 1.10159 8.13716 1.37903 7.88858L1.88173 7.43839V14.0292C1.88173 14.4336 2.20938 14.7609 2.61346 14.7609H5.23546C5.63954 14.7609 5.96719 14.4336 5.96719 14.0292V9.41829H9.31158V14.0292C9.30577 14.4333 9.59489 14.7606 9.99897 14.7606H12.7776C13.1817 14.7606 13.5094 14.4333 13.5094 14.0289V7.5312C13.5094 7.5312 13.6482 7.65285 13.8195 7.8034C13.9905 7.95366 14.3496 7.83318 14.6216 7.53384L14.8121 7.32437Z" fill="#F74C49"/>
</svg>
