<svg width="164" height="128" viewBox="0 0 164 128" fill="none" xmlns="http://www.w3.org/2000/svg">
<path d="M113.228 36.8667H95.728V44.1L81.4947 52.5C72.3947 40.1333 84.353 31.4558 88.4947 30.1C94.1968 28.2333 97.5947 28.2333 101.095 28.2333V24.9667L81.4947 13.3L62.3614 24.9667V28.2333H66.7947L70.9947 27.7667L78.228 24.5L77.0614 26.8333L80.5614 24.9667L82.6614 27.7667L83.828 24.9667L89.428 25.4333L81.4947 21L69.5947 27.3H66.7947L81.4947 19.6L95.728 27.3C78.928 27.4867 69.4391 37.9556 66.7947 43.1667V36.8667H62.3614V47.6L81.4947 58.3333L101.095 47.6V43.1667H113.228V53.9L81.4947 71.6333L50.228 53.9V17.9667L81.4947 0L113.228 17.9667V36.8667Z" fill="#4E4E4E"/>
<path d="M66.7949 28.4667V27.3001H69.8283L78.2283 24.5001L72.1616 28.7001L66.7949 28.4667Z" fill="#4E4E4E"/>
<path d="M81.564 19.3594L95.8374 27.2344C80.8749 28.0219 70.2437 38.1719 66.7983 43.1484V28.0547H69.7515L78.4468 24.2812L77.1343 26.7422L80.5796 24.9375L82.5483 27.5625L83.6968 24.9375L89.2749 25.4297L81.564 21.1641L69.7515 27.2344H66.7983L81.564 19.3594Z" fill="#F74C49"/>
<path d="M66.7983 27.2344V28.3828L72.2124 28.5469L78.4468 24.2812L69.7515 27.2344H66.7983Z" fill="#F74C49"/>
<path d="M24.4791 122.218V114.532H25.1114V116.991H27.9354V117.553H25.1114V122.358C25.1114 123.229 25.5469 123.665 26.418 123.665H28.0759V123.932L27.6825 124.227H26.4883C25.1488 124.227 24.4791 123.557 24.4791 122.218Z" fill="#4E4E4E"/>
<path d="M29.3692 124.227V117.764C29.6877 117.249 30.2637 116.991 31.0973 116.991H32.4321L32.8255 117.286V117.553H31.0271C30.5588 117.553 30.2169 117.679 30.0014 117.932V124.227H29.3692Z" fill="#4E4E4E"/>
<path d="M35.5199 124.227C34.1711 124.227 33.4967 123.543 33.4967 122.175C33.4967 120.808 34.1711 120.124 35.5199 120.124H38.4704V118.86C38.4704 117.989 38.0349 117.553 37.1638 117.553H34.143V117.286L34.5364 116.991H37.1076C38.4376 116.991 39.1027 117.661 39.1027 119V124.227H35.5199ZM34.129 122.358C34.129 123.229 34.5645 123.665 35.4356 123.665H38.4704V120.686H35.4356C34.5645 120.686 34.129 121.122 34.129 121.993V122.358Z" fill="#4E4E4E"/>
<path d="M41.0853 124.227V116.991H44.9209C46.251 116.991 46.916 117.661 46.916 119V124.227H46.2838V118.86C46.2838 117.989 45.8482 117.553 44.9771 117.553H41.7175V124.227H41.0853Z" fill="#4E4E4E"/>
<path d="M48.5888 123.932V123.665H51.8484C52.7007 123.665 53.1269 123.248 53.1269 122.414C53.1269 121.571 52.7897 121.094 52.1153 120.981L50.345 120.686C49.1742 120.489 48.5888 119.881 48.5888 118.86C48.5888 117.614 49.2632 116.991 50.612 116.991H53.0426L53.436 117.286V117.553H50.5136C49.6519 117.553 49.221 117.97 49.221 118.803C49.221 119.525 49.5769 119.946 50.2888 120.068L52.0591 120.363C53.2018 120.55 53.7732 121.211 53.7732 122.344C53.7732 123.599 53.0941 124.227 51.736 124.227H48.9822L48.5888 123.932Z" fill="#4E4E4E"/>
<path d="M55.503 127.037V116.991H59.3387C60.6687 116.991 61.3338 117.661 61.3338 119V122.218C61.3338 123.557 60.6687 124.227 59.3387 124.227H56.1353V127.037H55.503ZM56.1353 123.665H59.3949C60.266 123.665 60.7015 123.229 60.7015 122.358V118.86C60.7015 117.989 60.266 117.553 59.3949 117.553H56.1353V123.665Z" fill="#4E4E4E"/>
<path d="M63.1483 122.218V119C63.1483 117.661 63.818 116.991 65.1575 116.991H67.1245C68.4545 116.991 69.1196 117.661 69.1196 119V122.218C69.1196 123.557 68.4545 124.227 67.1245 124.227H65.1575C63.818 124.227 63.1483 123.557 63.1483 122.218ZM63.7806 122.358C63.7806 123.229 64.2161 123.665 65.0872 123.665H67.1807C68.0518 123.665 68.4873 123.229 68.4873 122.358V118.86C68.4873 117.989 68.0518 117.553 67.1807 117.553H65.0872C64.2161 117.553 63.7806 117.989 63.7806 118.86V122.358Z" fill="#4E4E4E"/>
<path d="M70.9896 124.227V117.764C71.3081 117.249 71.8842 116.991 72.7178 116.991H74.0526L74.446 117.286V117.553H72.6476C72.1792 117.553 71.8373 117.679 71.6219 117.932V124.227H70.9896Z" fill="#4E4E4E"/>
<path d="M75.5916 122.218V114.532H76.2238V116.991H79.0479V117.553H76.2238V122.358C76.2238 123.229 76.6594 123.665 77.5305 123.665H79.1884V123.932L78.795 124.227H77.6007C76.2613 124.227 75.5916 123.557 75.5916 122.218Z" fill="#4E4E4E"/>
<path d="M83.4495 122.218V119C83.4495 117.661 84.1192 116.991 85.4586 116.991H88.2968L88.6902 117.286V117.553H85.3884C84.5173 117.553 84.0817 117.989 84.0817 118.86V122.358C84.0817 123.229 84.5173 123.665 85.3884 123.665H88.6902V123.932L88.2968 124.227H85.4586C84.1192 124.227 83.4495 123.557 83.4495 122.218Z" fill="#4E4E4E"/>
<path d="M90.0684 122.218V119C90.0684 117.661 90.7381 116.991 92.0775 116.991H94.0445C95.3746 116.991 96.0396 117.661 96.0396 119V122.218C96.0396 123.557 95.3746 124.227 94.0445 124.227H92.0775C90.7381 124.227 90.0684 123.557 90.0684 122.218ZM90.7006 122.358C90.7006 123.229 91.1362 123.665 92.0073 123.665H94.1007C94.9718 123.665 95.4074 123.229 95.4074 122.358V118.86C95.4074 117.989 94.9718 117.553 94.1007 117.553H92.0073C91.1362 117.553 90.7006 117.989 90.7006 118.86V122.358Z" fill="#4E4E4E"/>
<path d="M97.9659 124.227V116.991H106.157C107.487 116.991 108.152 117.661 108.152 119V124.227H107.52V118.86C107.52 117.989 107.084 117.553 106.213 117.553H103.375V124.227H102.743V117.553H98.5982V124.227H97.9659Z" fill="#4E4E4E"/>
<path d="M110.128 127.037V116.991H113.964C115.294 116.991 115.959 117.661 115.959 119V122.218C115.959 123.557 115.294 124.227 113.964 124.227H110.76V127.037H110.128ZM110.76 123.665H114.02C114.891 123.665 115.326 123.229 115.326 122.358V118.86C115.326 117.989 114.891 117.553 114.02 117.553H110.76V123.665Z" fill="#4E4E4E"/>
<path d="M119.515 124.227C118.167 124.227 117.492 123.543 117.492 122.175C117.492 120.808 118.167 120.124 119.515 120.124H122.466V118.86C122.466 117.989 122.03 117.553 121.159 117.553H118.139V117.286L118.532 116.991H121.103C122.433 116.991 123.098 117.661 123.098 119V124.227H119.515ZM118.125 122.358C118.125 123.229 118.56 123.665 119.431 123.665H122.466V120.686H119.431C118.56 120.686 118.125 121.122 118.125 121.993V122.358Z" fill="#4E4E4E"/>
<path d="M125.081 124.227V116.991H128.916C130.247 116.991 130.912 117.661 130.912 119V124.227H130.279V118.86C130.279 117.989 129.844 117.553 128.973 117.553H125.713V124.227H125.081Z" fill="#4E4E4E"/>
<path d="M131.994 117.132L132.078 116.991H132.626L135.015 123.665H135.38L137.769 116.991H138.317L138.401 117.132L134.776 127.037H134.228L134.144 126.896L135.155 124.227H134.593L131.994 117.132Z" fill="#4E4E4E"/>
<path d="M0 107V85.0002H20.0748V87.4752H2.47498V94.7473H16.6221V97.2528H2.47498V104.525H20.0748V107H0Z" fill="#4E4E4E"/>
<path d="M24.0355 99.2084V96.7029H35.9521V99.2084H24.0355Z" fill="#4E4E4E"/>
<path d="M49.0176 107V87.4752H39.2399V85.0002H61.2397V87.4752H51.4926V107H49.0176Z" fill="#4E4E4E"/>
<path d="M64.1054 107V85.0307H82.4386C83.4571 85.0307 84.3228 85.3974 85.0358 86.1307C85.7487 86.8437 86.1052 87.6992 86.1052 88.6974V95.1445C86.1052 96.1427 85.7487 97.0084 85.0358 97.7417C84.3228 98.4547 83.4571 98.8112 82.4386 98.8112H79.0775L85.983 106.969V107H82.7136L75.8387 98.8112L66.5804 98.7806V107H64.1054ZM67.7721 96.3056H82.4386C82.7645 96.3056 83.0395 96.1936 83.2636 95.9695C83.4877 95.7455 83.5997 95.4705 83.5997 95.1445V88.6974C83.5997 88.3714 83.4877 88.0965 83.2636 87.8724C83.0395 87.6279 82.7645 87.5057 82.4386 87.5057H67.7721C67.4461 87.5057 67.161 87.6279 66.9165 87.8724C66.6924 88.0965 66.5804 88.3714 66.5804 88.6974V95.1445C66.5804 95.4705 66.6924 95.7455 66.9165 95.9695C67.161 96.1936 67.4461 96.3056 67.7721 96.3056Z" fill="#4E4E4E"/>
<path d="M90.0223 107V88.6668C90.0223 87.6483 90.3787 86.7826 91.0917 86.0696C91.8047 85.3567 92.6704 85.0002 93.6889 85.0002H108.355C109.374 85.0002 110.24 85.3567 110.953 86.0696C111.666 86.7826 112.022 87.6483 112.022 88.6668V107H109.547V98.9639H92.4972V107H90.0223ZM92.4972 96.489H109.547V88.6668C109.547 88.3409 109.425 88.0659 109.18 87.8418C108.956 87.5974 108.681 87.4752 108.355 87.4752H93.6889C93.363 87.4752 93.0778 87.5974 92.8334 87.8418C92.6093 88.0659 92.4972 88.3409 92.4972 88.6668V96.489Z" fill="#4E4E4E"/>
<path d="M116.115 107V85.0002H119.506L135.639 104.189V85.0002H138.114V107H134.723L118.59 87.8113V107H116.115Z" fill="#4E4E4E"/>
<path d="M145.662 107C144.644 107 143.778 106.643 143.065 105.931C142.352 105.218 141.996 104.352 141.996 103.333V102.478H144.471V103.333C144.471 103.659 144.583 103.944 144.807 104.189C145.051 104.413 145.337 104.525 145.662 104.525H160.329C160.655 104.525 160.93 104.413 161.154 104.189C161.398 103.944 161.521 103.659 161.521 103.333V98.4139C161.521 98.088 161.398 97.813 161.154 97.589C160.93 97.3649 160.655 97.2528 160.329 97.2528H145.662C144.644 97.2528 143.778 96.8964 143.065 96.1834C142.352 95.4501 141.996 94.5844 141.996 93.5862V88.6668C141.996 87.6483 142.352 86.7826 143.065 86.0696C143.778 85.3567 144.644 85.0002 145.662 85.0002H160.329C161.348 85.0002 162.213 85.3567 162.926 86.0696C163.639 86.7826 163.996 87.6483 163.996 88.6668V89.5224H161.521V88.6668C161.521 88.3409 161.398 88.0659 161.154 87.8418C160.93 87.5974 160.655 87.4752 160.329 87.4752H145.662C145.337 87.4752 145.051 87.5974 144.807 87.8418C144.583 88.0659 144.471 88.3409 144.471 88.6668V93.5862C144.471 93.9121 144.583 94.1871 144.807 94.4112C145.051 94.6353 145.337 94.7473 145.662 94.7473H160.329C161.348 94.7473 162.213 95.114 162.926 95.8473C163.639 96.5603 163.996 97.4158 163.996 98.4139V103.333C163.996 104.352 163.639 105.218 162.926 105.931C162.213 106.643 161.348 107 160.329 107H145.662Z" fill="#4E4E4E"/>
</svg>
