<svg width="20" height="23" viewBox="0 0 20 23" fill="none" xmlns="http://www.w3.org/2000/svg">
<path d="M13.0854 14.8541C13.1293 14.7826 13.1732 14.7124 13.2171 14.6396C15.1922 11.3697 16.1861 8.5092 16.1719 6.13867C16.1631 4.50775 15.5091 2.94659 14.3529 1.79635C13.1966 0.646099 11.6321 0.000276406 10.0011 8.87036e-08C8.37019 -0.000276228 6.80543 0.645016 5.64879 1.79487C4.49214 2.94473 3.83765 4.50566 3.82833 6.13658C3.81388 8.5092 4.80798 11.37 6.78308 14.6396C6.827 14.7124 6.87091 14.7826 6.91483 14.8541C2.75665 15.368 0 16.8541 0 18.6185C0 20.8337 4.39163 22.5689 10 22.5689C15.6084 22.5689 20 20.8337 20 18.6185C20 16.8541 17.2433 15.368 13.0854 14.8541ZM4.49373 6.13867C4.4896 5.41284 4.62902 4.69336 4.90396 4.02161C5.17889 3.34985 5.58393 2.73908 6.09577 2.22443C6.6076 1.70977 7.21613 1.30139 7.88637 1.02277C8.5566 0.744143 9.27531 0.600777 10.0011 0.600914C10.727 0.601052 11.4456 0.744691 12.1158 1.02357C12.7859 1.30245 13.3943 1.71106 13.9059 2.22591C14.4176 2.74076 14.8224 3.35168 15.097 4.02354C15.3717 4.6954 15.5109 5.41494 15.5065 6.14076C15.535 10.8666 11.1167 16.6953 10 18.093C8.88327 16.6953 4.46483 10.8664 4.49373 6.13867ZM10 21.9035C4.41616 21.9035 0.665399 20.2048 0.665399 18.6185C0.665399 17.2117 3.44658 15.9027 7.30684 15.4782C8.05344 16.6439 8.8681 17.7646 9.74658 18.8345C9.77777 18.8713 9.8166 18.9008 9.86037 18.9211C9.90413 18.9413 9.95177 18.9518 10 18.9518C10.0482 18.9518 10.0959 18.9413 10.1396 18.9211C10.1834 18.9008 10.2222 18.8713 10.2534 18.8345C11.132 17.7646 11.9467 16.6439 12.6933 15.4782C16.5527 15.9027 19.3348 17.2109 19.3348 18.6185C19.3346 20.2048 15.5838 21.9035 10 21.9035Z" fill="#202020" fill-opacity="0.22"/>
<path d="M7.27978 19.976C5.80336 19.787 4.61819 19.4543 3.94366 19.0397C3.90644 19.0159 3.86484 18.9997 3.82131 18.9922C3.77778 18.9846 3.73319 18.9858 3.69012 18.9957C3.64706 19.0056 3.60639 19.0239 3.5705 19.0497C3.5346 19.0755 3.5042 19.1081 3.48105 19.1457C3.45791 19.1834 3.4425 19.2252 3.43571 19.2689C3.42892 19.3126 3.4309 19.3571 3.44153 19.4C3.45215 19.4429 3.47121 19.4832 3.49759 19.5187C3.52397 19.5541 3.55715 19.5839 3.59518 19.6064C4.3486 20.0695 5.62731 20.4353 7.19537 20.6359C7.20949 20.6377 7.22372 20.6386 7.23796 20.6385C7.32229 20.6381 7.40331 20.6057 7.46465 20.5479C7.526 20.49 7.56307 20.411 7.56838 20.3268C7.5737 20.2426 7.54685 20.1596 7.49327 20.0945C7.4397 20.0294 7.36339 19.987 7.27978 19.976Z" fill="#202020" fill-opacity="0.22"/>
<path d="M10.5588 20.1353C10.0951 20.146 9.61226 20.1435 9.14096 20.1262C9.09727 20.1246 9.05369 20.1316 9.01271 20.1468C8.97173 20.1621 8.93415 20.1852 8.90212 20.215C8.87009 20.2447 8.84423 20.2805 8.82602 20.3203C8.80781 20.36 8.79761 20.4029 8.796 20.4466C8.79439 20.4903 8.8014 20.5339 8.81664 20.5749C8.83187 20.6159 8.85502 20.6535 8.88478 20.6855C8.91453 20.7175 8.95031 20.7434 8.99005 20.7616C9.0298 20.7798 9.07275 20.79 9.11644 20.7916C9.40884 20.8022 9.70579 20.8078 10.0001 20.8078C10.1936 20.8078 10.3851 20.8055 10.5744 20.8009C10.6626 20.7989 10.7464 20.7619 10.8074 20.6981C10.8683 20.6342 10.9014 20.5488 10.8993 20.4606C10.8989 20.4167 10.8896 20.3734 10.8722 20.3331C10.8547 20.2929 10.8294 20.2565 10.7976 20.2262C10.7659 20.1959 10.7284 20.1722 10.6874 20.1566C10.6464 20.141 10.6027 20.1338 10.5588 20.1353Z" fill="#202020" fill-opacity="0.22"/>
<path d="M12.8094 6.1392C12.8094 5.58354 12.6445 5.04039 12.3358 4.57841C12.027 4.11644 11.5882 3.75639 11.0748 3.54381C10.5614 3.33123 9.9965 3.27566 9.45153 3.38412C8.90656 3.49259 8.40599 3.76022 8.01311 4.15317C7.62024 4.54612 7.35272 5.04674 7.24436 5.59173C7.13601 6.13673 7.1917 6.70161 7.40438 7.21496C7.61707 7.7283 7.9772 8.16705 8.43924 8.47572C8.90127 8.78439 9.44447 8.94913 10.0001 8.94909C10.745 8.94818 11.4591 8.65184 11.9858 8.12506C12.5125 7.59828 12.8087 6.8841 12.8094 6.1392ZM7.85602 6.1392C7.8561 5.71516 7.98191 5.30065 8.21755 4.94811C8.4532 4.59556 8.78809 4.3208 9.17988 4.15858C9.57167 3.99636 10.0028 3.95395 10.4187 4.03672C10.8345 4.1195 11.2166 4.32373 11.5164 4.62361C11.8162 4.92348 12.0204 5.30552 12.1031 5.72143C12.1858 6.13734 12.1433 6.56843 11.981 6.96019C11.8187 7.35195 11.5439 7.68679 11.1913 7.92237C10.8387 8.15795 10.4242 8.28369 10.0001 8.28369C9.43159 8.28309 8.88653 8.05694 8.48455 7.6549C8.08257 7.25285 7.85652 6.70774 7.85602 6.1392Z" fill="#202020" fill-opacity="0.22"/>
<path d="M12.8094 6.1392C12.8094 5.58354 12.6445 5.04039 12.3358 4.57841C12.027 4.11644 11.5882 3.75639 11.0748 3.54381C10.5614 3.33123 9.9965 3.27566 9.45153 3.38412C8.90656 3.49259 8.40599 3.76022 8.01311 4.15317C7.62024 4.54612 7.35272 5.04674 7.24436 5.59173C7.13601 6.13673 7.1917 6.70161 7.40438 7.21496C7.61707 7.7283 7.9772 8.16705 8.43924 8.47572C8.90127 8.78439 9.44447 8.94913 10.0001 8.94909C10.745 8.94818 11.4591 8.65184 11.9858 8.12506C12.5125 7.59828 12.8087 6.8841 12.8094 6.1392ZM7.85602 6.1392C7.8561 5.71516 7.98191 5.30065 8.21755 4.94811C8.4532 4.59556 8.78809 4.3208 9.17988 4.15858C9.57167 3.99636 10.0028 3.95395 10.4187 4.03672C10.8345 4.1195 11.2166 4.32373 11.5164 4.62361C11.8162 4.92348 12.0204 5.30552 12.1031 5.72143C12.1858 6.13734 12.1433 6.56843 11.981 6.96019C11.8187 7.35195 11.5439 7.68679 11.1913 7.92237C10.8387 8.15795 10.4242 8.28369 10.0001 8.28369C9.43159 8.28309 8.88653 8.05694 8.48455 7.6549C8.08257 7.25285 7.85652 6.70774 7.85602 6.1392Z" stroke="black"/>
<circle cx="9.99993" cy="5.86224" r="3.10345" fill="#F74C49"/>
</svg>
