<svg width="131" height="134" viewBox="0 0 131 134" fill="none" xmlns="http://www.w3.org/2000/svg">
<path d="M128.689 25.7723C112.877 26.9777 97.7486 32.719 85.1179 42.3076C75.6584 49.5981 67.9241 58.8861 62.4667 69.5092C59.2769 68.2686 55.8481 67.7643 52.4362 68.0339C49.0243 68.3034 45.7173 69.3399 42.7618 71.0661C41.9193 71.5452 41.1985 72.2121 40.6553 73.0148C40.112 73.8175 39.761 74.7345 39.6293 75.6948C39.4976 76.655 39.5889 77.6327 39.896 78.552C40.2032 79.4713 40.7179 80.3075 41.4004 80.9958L75.7594 115.355C76.4197 116.026 77.2235 116.539 78.1104 116.856C78.9973 117.173 79.9444 117.284 80.8806 117.183C81.8169 117.082 82.7181 116.77 83.5166 116.27C84.3151 115.771 84.9903 115.098 85.4915 114.3C87.2901 111.318 88.3828 107.964 88.6861 104.495C88.9895 101.026 88.4954 97.5331 87.2417 94.2841C97.869 88.8287 107.162 81.096 114.458 71.6373C124.047 59.0113 129.788 43.8868 130.994 28.0787C131.017 27.7699 130.974 27.4596 130.867 27.1692C130.759 26.8787 130.591 26.6149 130.372 26.3958C130.153 26.1767 129.889 26.0076 129.599 25.9C129.308 25.7923 128.998 25.7488 128.689 25.7723ZM112.811 58.6861C111.354 60.1439 109.497 61.1368 107.475 61.5392C105.454 61.9416 103.358 61.7355 101.454 60.9468C99.549 60.1581 97.9212 58.8224 96.7759 57.1085C95.6306 55.3946 95.0193 53.3796 95.0193 51.3182C95.0193 49.2569 95.6306 47.2419 96.7759 45.528C97.9212 43.8141 99.549 42.4783 101.454 41.6897C103.358 40.901 105.454 40.6948 107.475 41.0972C109.497 41.4996 111.354 42.4925 112.811 43.9504C113.78 44.9175 114.548 46.066 115.072 47.3302C115.596 48.5945 115.866 49.9496 115.866 51.3182C115.866 52.6868 115.596 54.042 115.072 55.3062C114.548 56.5705 113.78 57.719 112.811 58.6861Z" fill="#F74C49"/>
<path d="M44.2092 89.433C43.5847 88.8111 42.8367 88.327 42.0136 88.012C41.1905 87.6969 40.3105 87.5579 39.4304 87.6038C38.5502 87.6497 37.6895 87.8796 36.9036 88.2786C36.1178 88.6776 35.4243 89.2369 34.8679 89.9204C26.0312 100.739 27.1994 109.741 27.2531 110.119C27.3088 110.515 27.474 110.888 27.73 111.195C27.9861 111.502 28.3228 111.732 28.7022 111.858C29.0817 111.984 29.4888 112.001 29.8778 111.909C30.2667 111.816 30.622 111.616 30.9037 111.333C32.2136 110.023 36.1091 109.307 39.2787 109.101C39.9229 118.496 26.9159 126.925 26.7763 127.013C26.4391 127.227 26.1683 127.532 25.9945 127.891C25.8206 128.251 25.7507 128.652 25.7924 129.05C25.8341 129.447 25.9859 129.825 26.2307 130.141C26.4754 130.457 26.8035 130.698 27.1779 130.838C31.1531 132.35 35.369 133.132 39.6223 133.144C52.6744 133.144 62.7931 125.695 67.2061 121.78C67.8427 121.211 68.3563 120.517 68.7153 119.742C69.0742 118.968 69.271 118.127 69.2935 117.274C69.316 116.42 69.1638 115.571 68.8462 114.778C68.5286 113.985 68.0524 113.266 67.4466 112.664L44.2092 89.433Z" fill="#F74C49"/>
<path d="M107.372 53.6888C107.372 44.86 105.195 36.1674 101.034 28.3809C96.8724 20.5944 90.8549 13.9544 83.5142 9.04906C76.1736 4.14372 67.7365 1.12447 58.9502 0.258739C50.164 -0.606989 41.2999 0.707535 33.143 4.08587C24.9861 7.4642 17.7884 12.8021 12.1872 19.6266C6.58609 26.4512 2.7545 34.5518 1.03185 43.2109C-0.690797 51.87 -0.251324 60.8203 2.31134 69.269C4.87401 77.7176 9.48076 85.4039 15.7235 91.6469C16.1317 92.0382 16.6753 92.2566 17.2407 92.2566C17.8061 92.2566 18.3497 92.0382 18.7579 91.6469L29.4306 80.9763C29.8218 80.5713 30.0382 80.0288 30.0334 79.4658C30.0285 78.9027 29.8026 78.3641 29.4045 77.966C29.0063 77.5678 28.4677 77.342 27.9047 77.3371C27.3416 77.3322 26.7992 77.5486 26.3941 77.9398L17.3191 87.0192C11.8947 81.1006 7.99559 73.9484 5.95985 66.1825C3.9241 58.4166 3.81312 50.2714 5.63652 42.4529C7.45992 34.6345 11.1627 27.3787 16.4238 21.3145C21.685 15.2504 28.3457 10.5609 35.8287 7.65262C43.3117 4.7443 51.3911 3.70492 59.3665 4.62457C67.342 5.54422 74.9728 8.39515 81.5975 12.9302C88.2222 17.4653 93.6408 23.5476 97.3837 30.65C101.127 37.7524 103.081 45.6605 103.077 53.6888C103.086 66.0422 98.4346 77.9444 90.0528 87.0192L80.9734 77.9398C80.5684 77.5486 80.0259 77.3322 79.4629 77.3371C78.8998 77.342 78.3612 77.5678 77.9631 77.966C77.5649 78.3641 77.3391 78.9027 77.3342 79.4658C77.3293 80.0288 77.5457 80.5713 77.9369 80.9763L88.6097 91.649C89.0181 92.0398 89.5616 92.2579 90.1268 92.2579C90.6921 92.2579 91.2356 92.0398 91.644 91.649C96.6416 86.6732 100.604 80.7569 103.304 74.2417C106.003 67.7264 107.386 60.7411 107.372 53.6888Z" fill="#202020"/>
<path d="M53.686 12.8883C61.2749 12.8831 68.7137 15.0024 75.1604 19.0064C75.4001 19.1551 75.6668 19.2552 75.9452 19.3009C76.2235 19.3466 76.5082 19.337 76.7829 19.2727C77.0576 19.2084 77.3169 19.0906 77.5461 18.9261C77.7752 18.7616 77.9697 18.5535 78.1185 18.3138C78.2673 18.0741 78.3674 17.8074 78.4131 17.5291C78.4588 17.2507 78.4492 16.966 78.3849 16.6913C78.3206 16.4166 78.2028 16.1573 78.0382 15.9281C77.8737 15.699 77.6657 15.5045 77.426 15.3557C69.2518 10.2992 59.6762 7.98576 50.0952 8.75278C40.5141 9.51981 31.4285 13.3271 24.163 19.6197C16.8974 25.9123 11.8317 34.3612 9.70448 43.7345C7.57722 53.1079 8.4996 62.9157 12.3371 71.7281C12.5669 72.2471 12.9928 72.654 13.5217 72.8599C14.0506 73.0658 14.6395 73.0539 15.1597 72.8269C15.6799 72.5999 16.0891 72.1761 16.2978 71.6483C16.5064 71.1205 16.4977 70.5315 16.2734 70.0101C13.5721 63.799 12.4582 57.0135 13.032 50.2648C13.6057 43.516 15.8491 37.0159 19.5601 31.35C23.2711 25.684 28.3332 21.03 34.2904 17.8073C40.2476 14.5845 46.9129 12.8941 53.686 12.8883Z" fill="#202020"/>
<path d="M93.5875 62.2553C93.0216 64.9174 92.1878 67.5154 91.0986 70.0097C90.9755 70.2695 90.9058 70.5515 90.8937 70.8388C90.8817 71.1261 90.9274 71.4129 91.0282 71.6822C91.1291 71.9515 91.283 72.1978 91.4808 72.4065C91.6786 72.6152 91.9164 72.782 92.1799 72.8971C92.4434 73.0122 92.7274 73.0731 93.0149 73.0764C93.3025 73.0797 93.5877 73.0251 93.8538 72.9161C94.1199 72.807 94.3613 72.6456 94.5638 72.4414C94.7664 72.2373 94.9258 71.9945 95.0327 71.7276C96.2382 68.968 97.162 66.0938 97.79 63.1486C97.8487 62.8727 97.8524 62.5879 97.801 62.3105C97.7496 62.0331 97.6441 61.7685 97.4904 61.5319C97.3368 61.2953 97.1381 61.0913 96.9056 60.9315C96.6731 60.7717 96.4114 60.6593 96.1355 60.6007C95.8595 60.542 95.5747 60.5383 95.2973 60.5897C95.0199 60.6411 94.7554 60.7466 94.5188 60.9003C94.2822 61.0539 94.0782 61.2526 93.9184 61.4851C93.7586 61.7176 93.6462 61.9793 93.5875 62.2553Z" fill="#202020"/>
<path d="M98.7821 53.3845C98.759 50.1048 98.3802 46.8374 97.6526 43.6394C97.5922 43.3622 97.4776 43.0996 97.3152 42.867C97.1528 42.6343 96.9459 42.4362 96.7064 42.284C96.467 42.1317 96.1997 42.0285 95.9202 41.9801C95.6406 41.9318 95.3542 41.9393 95.0775 42.0023C94.8009 42.0653 94.5395 42.1825 94.3084 42.3471C94.0773 42.5117 93.8811 42.7205 93.7312 42.9614C93.5812 43.2023 93.4805 43.4705 93.4349 43.7505C93.3892 44.0305 93.3995 44.3168 93.4651 44.5929C94.1238 47.4885 94.4666 50.4471 94.4873 53.4167C94.4918 53.9832 94.7201 54.5251 95.1223 54.9241C95.5245 55.3231 96.0681 55.547 96.6347 55.5469H96.6497C96.9318 55.545 97.2106 55.4875 97.4704 55.3777C97.7302 55.268 97.9658 55.1082 98.1638 54.9074C98.3618 54.7066 98.5184 54.4687 98.6244 54.2074C98.7305 53.9461 98.7841 53.6665 98.7821 53.3845Z" fill="#202020"/>
<path d="M89.7628 26.6573C89.5936 26.4317 89.3817 26.2416 89.139 26.098C88.8963 25.9543 88.6278 25.8598 88.3486 25.8199C88.0694 25.78 87.7851 25.7955 87.5119 25.8655C87.2388 25.9355 86.982 26.0586 86.7564 26.2278C86.5308 26.397 86.3408 26.609 86.1971 26.8517C86.0534 27.0943 85.9589 27.3629 85.919 27.6421C85.8792 27.9213 85.8947 28.2055 85.9646 28.4787C86.0346 28.7519 86.1577 29.0086 86.3269 29.2342C87.9617 31.411 89.3753 33.7453 90.5467 36.2027C90.7938 36.7122 91.2321 37.1035 91.7664 37.2914C92.3006 37.4793 92.8874 37.4486 93.3991 37.2059C93.9108 36.9632 94.3059 36.5283 94.4984 35.9957C94.6909 35.4631 94.6653 34.8761 94.4271 34.3623C93.1324 31.6453 91.57 29.0641 89.7628 26.6573Z" fill="#202020"/>
<path d="M80.4152 25.9982C80.1628 25.872 79.8881 25.7968 79.6066 25.7769C79.3252 25.7569 79.0426 25.7926 78.7749 25.882C78.5073 25.9713 78.2599 26.1125 78.0468 26.2976C77.8338 26.4826 77.6593 26.7077 77.5333 26.9602L56.9738 68.1223C54.1325 67.2904 51.0828 67.5507 48.4235 68.852C45.7642 70.1533 43.6874 72.4017 42.6008 75.1557C41.5142 77.9097 41.4963 80.9704 42.5507 83.7369C43.605 86.5034 45.6554 88.7759 48.2993 90.1082C50.9432 91.4405 53.9896 91.7364 56.8405 90.9378C59.6913 90.1392 62.1407 88.3038 63.7077 85.7918C65.2747 83.2799 65.8462 80.273 65.3099 77.3614C64.7736 74.4497 63.1683 71.8437 60.8091 70.055L81.388 28.88C81.5138 28.627 81.5884 28.3517 81.6076 28.0697C81.6268 27.7878 81.5901 27.5049 81.4998 27.2372C81.4094 26.9695 81.2671 26.7222 81.081 26.5096C80.8949 26.297 80.6686 26.1232 80.4152 25.9982ZM53.6861 86.9746C52.1995 86.9746 50.7464 86.5338 49.5104 85.708C48.2744 84.8821 47.311 83.7083 46.7422 82.3349C46.1733 80.9615 46.0244 79.4503 46.3144 77.9923C46.6045 76.5343 47.3203 75.1951 48.3714 74.144C49.4226 73.0928 50.7618 72.377 52.2198 72.087C53.6777 71.797 55.1889 71.9458 56.5623 72.5147C57.9357 73.0836 59.1095 74.0469 59.9354 75.2829C60.7613 76.5189 61.2021 77.9721 61.2021 79.4586C61.2021 81.452 60.4102 83.3637 59.0007 84.7732C57.5912 86.1828 55.6794 86.9746 53.6861 86.9746Z" fill="#202020"/>
</svg>
