<svg width="28" height="28" viewBox="0 0 28 28" fill="none" xmlns="http://www.w3.org/2000/svg">
<path d="M14 28C21.732 28 28 21.732 28 14C28 6.26801 21.732 0 14 0C6.26801 0 0 6.26801 0 14C0 21.732 6.26801 28 14 28Z" fill="white"/>
<path d="M6.40647 13.6969L19.9048 8.49241C20.5313 8.26608 21.0785 8.64524 20.8755 9.59258L20.8766 9.59141L18.5783 20.4192C18.408 21.1869 17.9518 21.3736 17.3136 21.0119L13.8136 18.4324L12.1255 20.0587C11.9388 20.2454 11.7813 20.4029 11.4196 20.4029L11.6681 16.8411L18.1548 10.9809C18.4371 10.7324 18.0918 10.5924 17.7196 10.8397L9.70347 15.8867L6.24781 14.8087C5.49764 14.5707 5.48131 14.0586 6.40647 13.6969Z" fill="#F97775"/>
</svg>
