<svg width="122" height="122" viewBox="0 0 122 122" fill="none" xmlns="http://www.w3.org/2000/svg">
<rect x="3" y="59" width="12" height="6" fill="#FF0400"/>
<path d="M9 61.0345C9 50.8571 12.0112 40.9032 17.661 32.4048C23.3107 23.9064 31.3509 17.2367 40.7863 13.2213C50.2217 9.20582 60.6381 8.02096 70.746 9.81334C80.8539 11.6057 90.2096 16.2967 97.655 23.3055C105.1 30.3143 110.309 39.3333 112.635 49.246C114.961 59.1588 114.304 69.53 110.743 79.0761C107.183 88.6221 100.876 96.9238 92.6041 102.953C84.3319 108.983 74.4572 112.476 64.2024 113" stroke="#FF1D19" stroke-width="16"/>
<g clip-path="url(#clip0)">
<path d="M111.277 64.5747H114.852V68.1489H111.277V64.5747Z" fill="black"/>
<path d="M99.0785 22.9212C88.9073 12.75 75.3841 7.14844 60.9998 7.14844V10.7227C88.7228 10.7227 111.277 33.2769 111.277 61H114.851C114.851 46.6159 109.25 33.0925 99.0785 22.9212Z" fill="black"/>
<path d="M17.8708 61.9224V61.0005C17.8708 37.2191 37.2183 17.8716 60.9998 17.8716C84.7812 17.8716 104.129 37.2191 104.129 61.0005C104.129 71.879 100.064 82.2695 92.6838 90.2579L95.3092 92.6836C103.301 84.0325 107.703 72.7806 107.703 61.0005C107.703 35.2485 86.752 14.2974 60.9998 14.2974C35.5573 14.2974 14.8013 34.7457 14.3057 60.0721L8.9353 63.8916L3.58112 60.0838C3.80678 45.7295 9.32894 32.1098 19.1885 21.6405L16.5868 19.19C5.89054 30.5472 -0.000244141 45.3959 -0.000244141 61.0005V61.9224L8.9353 68.2774L17.8708 61.9224Z" fill="black"/>
<path d="M104.133 17.8663C92.612 6.34519 77.2936 0 61 0C45.3961 0 30.5476 5.89079 19.1895 16.587L21.6399 19.189C32.3321 9.1195 46.3106 3.57422 61 3.57422C92.6647 3.57422 118.426 29.3353 118.426 61C118.426 91.4759 94.5631 116.484 64.5406 118.318L68.2768 113.064L64.3778 107.582C74.9187 106.825 84.8633 102.534 92.6828 95.3094L90.2573 92.684C82.2697 100.064 71.8792 104.129 61 104.129H57.5361L63.8908 113.064L57.5361 122H61C77.2936 122 92.612 115.655 104.133 104.134C115.655 92.6121 122 77.2937 122 61C122 44.7063 115.655 29.3879 104.133 17.8663Z" fill="black"/>
<path d="M48.7309 86.8773H45.3245V81.4321H41.7502V95.8965H45.3245V90.4515H48.7309V95.8965H52.3052V81.4321H48.7309V86.8773Z" fill="black"/>
<path d="M1.78687 85.0063H14.6202V92.3223H1.78687V106.787H18.1944V103.212H5.36108V95.8965H18.1944V81.4321H1.78687V85.0063Z" fill="black"/>
<path d="M34.6019 92.3223H25.3428V81.4321H21.7686V95.8965H34.6019V106.786H38.1761V81.4321H34.6019V92.3223Z" fill="black"/>
<path d="M68.1483 61.0005C68.1483 59.6766 67.7851 58.4366 67.1553 57.3722L83.108 41.4195L80.5808 38.8921L64.6279 54.8448C63.5637 54.215 62.3237 53.8521 60.9998 53.8521C59.6759 53.8521 58.4359 54.215 57.3717 54.8448L48.1302 45.6035L45.603 48.131L54.8443 57.3722C54.2143 58.4366 53.8514 59.6766 53.8514 61.0005C53.8514 64.9422 57.0582 68.149 60.9998 68.149C64.9415 68.149 68.1483 64.9422 68.1483 61.0005ZM57.4256 61.0005C57.4256 59.0297 59.029 57.4263 60.9998 57.4263C62.9706 57.4263 64.574 59.0297 64.574 61.0005C64.574 62.9714 62.9706 64.5748 60.9998 64.5748C59.029 64.5748 57.4256 62.9714 57.4256 61.0005Z" fill="black"/>
<path d="M96.9802 59.2124H100.554V62.7866H96.9802V59.2124Z" fill="black"/>
<path d="M85.1638 34.2964L87.6906 31.7696L90.2176 34.2966L87.6908 36.8234L85.1638 34.2964Z" fill="black"/>
<path d="M31.7598 34.2944L34.2867 31.7675L36.8135 34.2943L34.2866 36.8212L31.7598 34.2944Z" fill="black"/>
<path d="M21.4453 59.2124H25.0195V62.7866H21.4453V59.2124Z" fill="black"/>
<path d="M59.2126 96.9805H62.7869V100.555H59.2126V96.9805Z" fill="black"/>
<path d="M85.1602 87.7109L87.6871 85.184L90.2139 87.7108L87.687 90.2377L85.1602 87.7109Z" fill="black"/>
<path d="M59.2126 21.4453H62.7869V25.0195H59.2126V21.4453Z" fill="black"/>
</g>
<defs>
<clipPath id="clip0">
<rect width="122" height="122" fill="white"/>
</clipPath>
</defs>
</svg>
